{
  "accessors": [
    {
      "bufferView": 2,
      "componentType": 5126,
      "count": 65533,
      "max": [
        2.018357992172241,
        1.507593035697937,
        2.661402940750122
      ],
      "min": [
        -2.284367084503174,
        -1.762218952178955,
        -2.3268020153045654
      ],
      "type": "VEC3"
    },
    {
      "bufferView": 2,
      "byteOffset": 786396,
      "componentType": 5126,
      "count": 65533,
      "max": [
        0.9999679327011108,
        0.9998973608016968,
        0.9999192953109741
      ],
      "min": [
        -0.9999597072601318,
        -0.9982848763465881,
        -0.9999721050262451
      ],
      "type": "VEC3"
    },
    {
      "bufferView": 1,
      "componentType": 5126,
      "count": 65533,
      "max": [
        0.9970059990882874,
        0.9761790037155151
      ],
      "min": [
        0.0007089999853633344,
        0.034977998584508896
      ],
      "type": "VEC2"
    },
    {
      "bufferView": 0,
      "componentType": 5125,
      "count": 65553,
      "type": "SCALAR"
    },
    {
      "bufferView": 2,
      "byteOffset": 1572792,
      "componentType": 5126,
      "count": 65533,
      "max": [
        2.054598093032837,
        1.5225379467010498,
        2.3590879440307617
      ],
      "min": [
        -1.8906329870224,
        -1.9246410131454468,
        -2.786052942276001
      ],
      "type": "VEC3"
    },
    {
      "bufferView": 2,
      "byteOffset": 2359188,
      "componentType": 5126,
      "count": 65533,
      "max": [
        0.9999529123306274,
        0.9999884366989136,
        0.9523314833641052
      ],
      "min": [
        -0.9895066022872925,
        -0.95246821641922,
        -0.9999852180480957
      ],
      "type": "VEC3"
    },
    {
      "bufferView": 1,
      "byteOffset": 524264,
      "componentType": 5126,
      "count": 65533,
      "max": [
        0.7292029857635498,
        0.9992910027503967
      ],
      "min": [
        0.0007089999853633344,
        0.5653120279312134
      ],
      "type": "VEC2"
    },
    {
      "bufferView": 0,
      "byteOffset": 262212,
      "componentType": 5125,
      "count": 65553,
      "type": "SCALAR"
    },
    {
      "bufferView": 2,
      "byteOffset": 3145584,
      "componentType": 5126,
      "count": 65534,
      "max": [
        1.7045830488204956,
        0.7608240246772766,
        2.388727903366089
      ],
      "min": [
        -2.3953959941864014,
        -1.9581890106201172,
        -2.790105104446411
      ],
      "type": "VEC3"
    },
    {
      "bufferView": 2,
      "byteOffset": 3931992,
      "componentType": 5126,
      "count": 65534,
      "max": [
        0.9998911619186401,
        0.9893158078193665,
        0.9999405145645142
      ],
      "min": [
        -0.9999144077301025,
        -0.9999850988388062,
        -0.9997474551200867
      ],
      "type": "VEC3"
    },
    {
      "bufferView": 1,
      "byteOffset": 1048528,
      "componentType": 5126,
      "count": 65534,
      "max": [
        0.7017300128936768,
        0.997996985912323
      ],
      "min": [
        0.1573130041360855,
        0.20941700041294098
      ],
      "type": "VEC2"
    },
    {
      "bufferView": 0,
      "byteOffset": 524424,
      "componentType": 5125,
      "count": 65562,
      "type": "SCALAR"
    },
    {
      "bufferView": 2,
      "byteOffset": 4718400,
      "componentType": 5126,
      "count": 43706,
      "max": [
        2.054598093032837,
        1.5030039548873901,
        2.3797190189361572
      ],
      "min": [
        -2.4091339111328125,
        -1.9863150119781494,
        -2.7142341136932373
      ],
      "type": "VEC3"
    },
    {
      "bufferView": 2,
      "byteOffset": 5242872,
      "componentType": 5126,
      "count": 43706,
      "max": [
        0.9999017715454102,
        0.988794207572937,
        0.9996468424797058
      ],
      "min": [
        -0.9999798536300659,
        -0.999823272228241,
        -0.9815608859062195
      ],
      "type": "VEC3"
    },
    {
      "bufferView": 1,
      "byteOffset": 1572800,
      "componentType": 5126,
      "count": 43706,
      "max": [
        0.9944130182266235,
        0.7569440007209778
      ],
      "min": [
        0.4535149931907654,
        0.11473199725151062
      ],
      "type": "VEC2"
    },
    {
      "bufferView": 0,
      "byteOffset": 786672,
      "componentType": 5125,
      "count": 43734,
      "type": "SCALAR"
    }
  ],
  "asset": {
    "extras": {
      "author": "MSU Campus Archaeology Program (https://sketchfab.com/capmsu)",
      "license": "CC-BY-4.0 (http://creativecommons.org/licenses/by/4.0/)",
      "source": "https://sketchfab.com/3d-models/interlocking-hugging-bear-pepper-shaker-73b87634f0ab4e849c093f0a6adcc743",
      "title": "Interlocking Hugging Bear Pepper Shaker"
    },
    "generator": "Sketchfab-12.68.0",
    "version": "2.0"
  },
  "bufferViews": [
    {
      "buffer": 0,
      "byteLength": 961608,
      "name": "floatBufferViews",
      "target": 34963
    },
    {
      "buffer": 0,
      "byteLength": 1922448,
      "byteOffset": 961608,
      "byteStride": 8,
      "name": "floatBufferViews",
      "target": 34962
    },
    {
      "buffer": 0,
      "byteLength": 5767344,
      "byteOffset": 2884056,
      "byteStride": 12,
      "name": "floatBufferViews",
      "target": 34962
    }
  ],
  "buffers": [
    {
      "byteLength": 8651400,
      "uri": "scene.bin"
    }
  ],
  "images": [
    {
      "uri": "textures/material_0_baseColor.png"
    }
  ],
  "materials": [
    {
      "doubleSided": true,
      "name": "material_0",
      "pbrMetallicRoughness": {
        "baseColorTexture": {
          "index": 0
        },
        "metallicFactor": 0.0,
        "roughnessFactor": 0.0623906966335156
      }
    }
  ],
  "meshes": [
    {
      "name": "Object_0",
      "primitives": [
        {
          "attributes": {
            "NORMAL": 1,
            "POSITION": 0,
            "TEXCOORD_0": 2
          },
          "indices": 3,
          "material": 0,
          "mode": 4
        }
      ]
    },
    {
      "name": "Object_1",
      "primitives": [
        {
          "attributes": {
            "NORMAL": 5,
            "POSITION": 4,
            "TEXCOORD_0": 6
          },
          "indices": 7,
          "material": 0,
          "mode": 4
        }
      ]
    },
    {
      "name": "Object_2",
      "primitives": [
        {
          "attributes": {
            "NORMAL": 9,
            "POSITION": 8,
            "TEXCOORD_0": 10
          },
          "indices": 11,
          "material": 0,
          "mode": 4
        }
      ]
    },
    {
      "name": "Object_3",
      "primitives": [
        {
          "attributes": {
            "NORMAL": 13,
            "POSITION": 12,
            "TEXCOORD_0": 14
          },
          "indices": 15,
          "material": 0,
          "mode": 4
        }
      ]
    }
  ],
  "nodes": [
    {
      "children": [
        1
      ],
      "matrix": [
        1.0,
        0.0,
        0.0,
        0.0,
        0.0,
        2.220446049250313e-16,
        -1.0,
        0.0,
        0.0,
        1.0,
        2.220446049250313e-16,
        0.0,
        0.0,
        0.0,
        0.0,
        1.0
      ],
      "name": "Sketchfab_model"
    },
    {
      "children": [
        2,
        3,
        4,
        5
      ],
      "name": "{B79267AE-431B-4D8D-AF9B-6CEA4E25952B}.obj.cleaner.materialmerger.gles"
    },
    {
      "mesh": 0,
      "name": "Object_2"
    },
    {
      "mesh": 1,
      "name": "Object_3"
    },
    {
      "mesh": 2,
      "name": "Object_4"
    },
    {
      "mesh": 3,
      "name": "Object_5"
    }
  ],
  "samplers": [
    {
      "magFilter": 9729,
      "minFilter": 9987,
      "wrapS": 10497,
      "wrapT": 10497
    }
  ],
  "scene": 0,
  "scenes": [
    {
      "name": "Sketchfab_Scene",
      "nodes": [
        0
      ]
    }
  ],
  "textures": [
    {
      "sampler": 0,
      "source": 0
    }
  ]
}
